<?xml version="1.0" standalone="no"?>
<!DOCTYPE svg PUBLIC "-//W3C//DTD SVG 1.1//EN" "http://www.w3.org/Graphics/SVG/1.1/DTD/svg11.dtd" >
<svg xmlns="http://www.w3.org/2000/svg">
<metadata>
<json>
<![CDATA[
{
	"fontFamily": "icomoon",
	"majorVersion": 1,
	"minorVersion": 0,
	"description": "Font generated by IcoMoon.",
	"version": "Version 1.0",
	"fontId": "icomoon",
	"psName": "icomoon",
	"subFamily": "Regular",
	"fullName": "icomoon"
}
]]>
</json>
</metadata>
<defs>
<font id="icomoon" horiz-adv-x="1024">
<font-face units-per-em="1024" ascent="960" descent="-64" />
<missing-glyph horiz-adv-x="1024" />
<glyph unicode="&#x20;" horiz-adv-x="512" d="" />
<glyph unicode="&#xe900;" glyph-name="arrow-2-left" data-tags="arrow-2-left" horiz-adv-x="640" d="M238.667 448l366.333 374c16.333 16.667 16.167 43.333-0.333 60l-65.5 65.5c-16.833 16.667-43.833 16.667-60.5-0.167l-466.167-469.167c-8.333-8.333-12.5-19.167-12.5-30.167s4.167-21.833 12.5-30.167l466.167-469.167c16.667-16.833 43.667-16.833 60.5-0.167l65.5 65.5c16.5 16.667 16.667 43.333 0.333 60l-366.333 374z" />
<glyph unicode="&#xe901;" glyph-name="arrow-2-right" data-tags="arrow-2-right" horiz-adv-x="640" d="M401.333 448l-366.333 374c-16.333 16.667-16.167 43.333 0.333 60l65.5 65.5c16.833 16.667 43.833 16.667 60.5-0.167l466.167-469.167c8.333-8.333 12.5-19.167 12.5-30.167s-4.167-21.833-12.5-30.167l-466.167-469.167c-16.667-16.833-43.667-16.833-60.5-0.167l-65.5 65.5c-16.5 16.667-16.667 43.333-0.333 60l366.333 374z" />
<glyph unicode="&#xe902;" glyph-name="arrow-down" data-tags="arrow-down" horiz-adv-x="1579" d="M756.763 423.416c19.52-8.16 41.6-8.16 61.12 0 9.76 4.16 18.72 10.080 26.080 17.44l426.72 426.56c15.2 13.76 34.24 21.28 53.44 21.28 20.48 0 40.96-7.84 56.64-23.36 31.2-31.2 31.2-81.92 0-113.12l-536.8-536.64c-7.36-7.36-16.32-13.28-26.080-17.44-19.52-8.16-41.6-8.16-61.12 0-9.76 4.16-18.72 10.080-26.080 17.44l-536.64 536.64c-31.2 31.2-31.2 81.92 0 113.12 15.68 15.68 36.16 23.36 56.64 23.36 19.36 0 38.24-7.52 53.44-21.28l426.56-426.56c7.36-7.36 16.32-13.28 26.080-17.44z" />
<glyph unicode="&#xe903;" glyph-name="arrow-left" data-tags="arrow-left" horiz-adv-x="600" d="M191.517 474.955c-6.753-16.154-6.753-34.428 0-50.582 3.443-8.077 8.342-15.492 14.433-21.583l353.015-353.148c11.388-12.579 17.611-28.337 17.611-44.226 0-16.949-6.488-33.898-19.332-46.874-25.821-25.821-67.796-25.821-93.617 0l-444.116 444.248c-6.091 6.091-10.99 13.506-14.433 21.583-6.753 16.154-6.753 34.428 0 50.582 3.443 8.077 8.342 15.492 14.433 21.583l444.116 444.116c25.821 25.821 67.796 25.821 93.617 0 12.977-12.977 19.332-29.926 19.332-46.874 0-16.022-6.223-31.647-17.611-44.226l-353.015-353.015c-6.091-6.091-10.99-13.506-14.433-21.583z" />
<glyph unicode="&#xe904;" glyph-name="arrow-right" data-tags="arrow-right" horiz-adv-x="600" d="M408.759 474.955c6.753-16.154 6.753-34.428 0-50.582-3.443-8.077-8.342-15.492-14.433-21.583l-353.015-353.148c-11.388-12.579-17.611-28.337-17.611-44.226 0-16.949 6.488-33.898 19.332-46.874 25.821-25.821 67.796-25.821 93.617 0l444.116 444.248c6.091 6.091 10.99 13.506 14.433 21.583 6.753 16.154 6.753 34.428 0 50.582-3.443 8.077-8.342 15.492-14.433 21.583l-444.116 444.116c-25.821 25.821-67.796 25.821-93.617 0-12.977-12.977-19.332-29.926-19.332-46.874 0-16.022 6.223-31.647 17.611-44.226l353.015-353.015c6.091-6.091 10.99-13.506 14.433-21.583z" />
<glyph unicode="&#xe905;" glyph-name="arrow-top" data-tags="arrow-top" horiz-adv-x="1579" d="M756.763 643.251c19.52 8.16 41.6 8.16 61.12 0 9.76-4.16 18.72-10.080 26.080-17.44l426.72-426.56c15.2-13.76 34.24-21.28 53.44-21.28 20.48 0 40.96 7.84 56.64 23.36 31.2 31.2 31.2 81.92 0 113.12l-536.8 536.64c-7.36 7.36-16.32 13.28-26.080 17.44-19.52 8.16-41.6 8.16-61.12 0-9.76-4.16-18.72-10.080-26.080-17.44l-536.64-536.64c-31.2-31.2-31.2-81.92 0-113.12 15.68-15.68 36.16-23.36 56.64-23.36 19.36 0 38.24 7.52 53.44 21.28l426.56 426.56c7.36 7.36 16.32 13.28 26.080 17.44z" />
<glyph unicode="&#xe906;" glyph-name="calender" data-tags="calender" d="M294.231 781.913c-12.703 0-23.229-10.087-23.229-22.261v-22.261h-69.686c-13.474 0-23.229-9.348-23.229-22.261v-77.913h534.261v77.913c0 12.913-9.754 22.261-23.229 22.261h-69.686v22.261c0 12.174-10.526 22.261-23.229 22.261h-23.229c-12.703 0-23.229-10.087-23.229-22.261v-22.261h-209.059v22.261c0 12.174-10.526 22.261-23.229 22.261h-23.229zM294.231 759.652h23.229v-66.783h-23.229v66.783zM572.975 759.652h23.229v-66.783h-23.229v66.783zM178.087 614.957v-345.043c0-12.913 9.754-22.261 23.229-22.261h487.803c13.474 0 23.229 9.348 23.229 22.261v345.043h-534.261zM294.231 548.174h58.072v-55.652h-58.072v55.652zM375.531 548.174h58.072v-55.652h-58.072v55.652zM456.832 548.174h58.072v-55.652h-58.072v55.652zM538.132 548.174h58.072v-55.652h-58.072v55.652zM294.231 470.261h58.072v-55.652h-58.072v55.652zM375.531 470.261h58.072v-55.652h-58.072v55.652zM456.832 470.261h58.072v-55.652h-58.072v55.652zM538.132 470.261h58.072v-55.652h-58.072v55.652zM294.231 392.348h58.072v-55.652h-58.072v55.652zM375.531 392.348h58.072v-55.652h-58.072v55.652zM456.832 392.348h58.072v-55.652h-58.072v55.652zM538.132 392.348h58.072v-55.652h-58.072v55.652z" />
<glyph unicode="&#xe907;" glyph-name="chat" data-tags="chat" horiz-adv-x="1268" d="M1137.543 48.251c79.474 55.977 130.266 138.702 130.266 230.697 0 168.489-168.804 305.114-376.979 305.114s-376.979-136.625-376.979-305.114c0-168.54 168.804-305.165 376.979-305.165 43.022 0 84.532 5.927 123.070 16.717l11.055 1.621c7.249 0 13.819-2.178 20.025-5.623l82.551-46.302 7.249-2.28c6.936 0 12.568 5.471 12.568 12.209l-2.034 8.916-17 61.55-1.304 7.801c0 8.207 4.172 15.451 10.534 19.858v0zM468.639 920.99c-249.842 0-452.385-163.93-452.385-366.208 0-110.334 60.909-209.674 156.288-276.796 7.666-5.268 12.672-13.982 12.672-23.86l-1.564-9.321-20.39-73.86-2.451-10.689c0-8.105 6.779-14.691 15.071-14.691l8.761 2.736 99.029 55.572c7.405 4.154 15.279 6.738 23.988 6.738l13.298-1.925c46.203-12.918 96.057-20.111 147.684-20.111l24.823 0.608c-9.804 28.571-15.175 58.662-15.175 89.716 0 184.447 184.709 333.99 412.544 333.99l24.562-0.608c-34.053 174.923-221.108 308.711-446.753 308.711v0zM765.154 327.732c-27.743 0-50.219 21.884-50.219 48.835 0 27.001 22.476 48.835 50.219 48.835 27.795 0 50.271-21.834 50.271-48.835 0-26.95-22.476-48.835-50.271-48.835zM1016.508 327.732c-27.795 0-50.271 21.884-50.271 48.835 0 27.001 22.476 48.835 50.271 48.835 27.743 0 50.219-21.834 50.219-48.835 0-26.95-22.476-48.835-50.219-48.835zM317.827 613.394c-33.323 0-60.283 26.241-60.283 58.561 0 32.371 26.961 58.612 60.283 58.612s60.335-26.241 60.335-58.612c0-32.32-27.013-58.561-60.335-58.561zM619.399 613.394c-33.323 0-60.283 26.241-60.283 58.561 0 32.371 26.961 58.612 60.283 58.612s60.335-26.241 60.335-58.612c0-32.32-27.013-58.561-60.335-58.561z" />
<glyph unicode="&#xe908;" glyph-name="search" data-tags="search" d="M660.48 239.616c-68.622-53.712-156.164-86.131-251.277-86.131-226.216 0-409.6 183.384-409.6 409.6s183.384 409.6 409.6 409.6c226.216 0 409.6-183.384 409.6-409.6 0-95.113-32.419-182.654-86.809-252.177l0.678 0.9 273.92-272.896-72.704-72.704-272.896 273.408zM409.6 256c169.662 0 307.2 137.538 307.2 307.2s-137.538 307.2-307.2 307.2v0c-169.662 0-307.2-137.538-307.2-307.2s137.538-307.2 307.2-307.2v0z" />
<glyph unicode="&#xe909;" glyph-name="minus" data-tags="minus" d="M213.333 384h597.333c23.552 0 42.667 19.115 42.667 42.667s-19.115 42.667-42.667 42.667h-597.333c-23.552 0-42.667-19.115-42.667-42.667s19.115-42.667 42.667-42.667z" />
<glyph unicode="&#xe90a;" glyph-name="search1" data-tags="search" d="M684.416 262.144c-1.451-1.109-2.859-2.347-4.224-3.712s-2.56-2.731-3.712-4.224c-53.675-51.755-126.677-83.541-207.147-83.541-82.475 0-157.099 33.365-211.2 87.467s-87.467 128.725-87.467 211.2 33.365 157.099 87.467 211.2 128.725 87.467 211.2 87.467 157.099-33.365 211.2-87.467 87.467-128.725 87.467-211.2c0-80.469-31.787-153.472-83.584-207.189zM926.165 72.832l-156.8 156.8c52.523 65.707 83.968 149.035 83.968 239.701 0 106.027-43.008 202.069-112.469 271.531s-165.504 112.469-271.531 112.469-202.069-43.008-271.531-112.469-112.469-165.504-112.469-271.531 43.008-202.069 112.469-271.531 165.504-112.469 271.531-112.469c90.667 0 173.995 31.445 239.701 83.968l156.8-156.8c16.683-16.683 43.691-16.683 60.331 0s16.683 43.691 0 60.331z" />
<glyph unicode="&#xe90b;" glyph-name="ic-medal-1" data-tags="ic-medal-1" horiz-adv-x="848" d="M444.174 432.172v267.561h-26.756c-9.91-12.993-28.298-22.682-55.164-29.068v0-26.756c4.845 0.881 13.708 2.532 26.591 4.955s19.544 3.964 19.985 4.625v0-221.316h35.345zM844.69 90.662l-123.214 295.538c37.996 56.437 60.179 124.226 60.179 197.062 0 195.976-160.486 355.405-357.74 355.405-197.262 0-357.74-159.429-357.74-355.405 0-72.836 22.184-140.625 60.179-197.062l-123.222-295.538c-12.665-30.383 15.088-62.219 47.207-54.047l162.948 41.469 85.706-143.796c16.96-28.469 59.22-25.25 71.861 5.070l53.060 127.273 53.060-127.273c12.642-30.32 54.901-33.539 71.861-5.070l85.706 143.796 162.948-41.469c32.072-8.156 59.888 23.625 47.199 54.047zM327.259 43.896l-60.053 100.765c-9.125 15.297-27.313 22.789-44.651 18.375l-114.191-29.070 76.998 184.687c46.759-41.641 104.563-71.265 168.463-83.922l26.502-63.562-53.068-127.273zM423.915 307.864c-152.848 0-277.202 123.547-277.202 275.405 0 151.851 124.355 275.398 277.202 275.398s277.202-123.547 277.202-275.398c0-151.859-124.355-275.405-277.202-275.405zM625.268 163.036c-17.33 4.414-35.525-3.078-44.643-18.375l-60.061-100.765-76.927 184.515c83.826 4.547 160.061 37.898 218.824 90.242l77.006-184.687-114.199 29.070z" />
<glyph unicode="&#xe90c;" glyph-name="checkmark" data-tags="checkmark" d="M0 409.6l102.4 102.4 256-256 563.2 563.2 102.4-102.4-665.6-665.6z" />
<glyph unicode="&#xe90d;" glyph-name="linkedin2, brand2, social2" data-tags="linkedin, brand, social" d="M384 576h177.106v-90.782h2.532c24.64 44.194 84.958 90.782 174.842 90.782 186.946 0 221.52-116.376 221.52-267.734v-308.266h-184.61v273.278c0 65.184-1.334 149.026-96.028 149.026-96.148 0-110.82-70.986-110.82-144.292v-278.012h-184.542v576zM64 576h192v-576h-192v576zM256 736c0-53.019-42.981-96-96-96s-96 42.981-96 96c0 53.019 42.981 96 96 96s96-42.981 96-96z" />
<glyph unicode="&#xe90e;" glyph-name="sina-weibo, brand, social" data-tags="sina-weibo, brand, social" d="M430.2 62c-169.6-16.8-316 60-327 171.2-11 111.4 117.6 215 287 231.8 169.6 16.8 316-60 326.8-171.2 11.2-111.4-117.4-215.2-286.8-231.8zM769.2 431.4c-14.4 4.4-24.4 7.2-16.8 26.2 16.4 41.2 18 76.6 0.2 102-33.2 47.4-124.2 45-228.4 1.2 0 0-32.8-14.2-24.4 11.6 16 51.6 13.6 94.6-11.4 119.6-56.6 56.6-207-2.2-336-131.2-96.4-96.2-152.4-198.8-152.4-287.4 0-169.2 217.2-272.2 429.6-272.2 278.4 0 463.8 161.8 463.8 290.2 0 77.8-65.4 121.8-124.2 140zM954.2 741.4c-67.2 74.6-166.4 103-258 83.6v0c-21.2-4.6-34.6-25.4-30-46.4 4.6-21.2 25.2-34.6 46.4-30 65.2 13.8 135.6-6.4 183.4-59.4s60.8-125.2 40.2-188.4v0c-6.6-20.6 4.6-42.6 25.2-49.4 20.6-6.6 42.6 4.6 49.4 25.2v0.2c28.8 88.4 10.6 190-56.6 264.6zM850.8 648c-32.8 36.4-81.2 50.2-125.6 40.6-18.2-3.8-29.8-22-26-40.2 4-18.2 22-29.8 40-25.8v0c21.8 4.6 45.4-2.2 61.4-19.8 16-17.8 20.4-42 13.4-63.2v0c-5.6-17.6 4-36.8 21.8-42.6 17.8-5.6 36.8 4 42.6 21.8 14 43.4 5.2 93-27.6 129.2zM439.6 263.4c-6-10.2-19-15-29.2-10.8-10.2 4-13.2 15.6-7.4 25.4 6 9.8 18.6 14.6 28.6 10.8 10-3.6 13.6-15 8-25.4zM385.4 194.2c-16.4-26.2-51.6-37.6-78-25.6-26 11.8-33.8 42.2-17.4 67.8 16.2 25.4 50.2 36.8 76.4 25.8 26.6-11.4 35.2-41.6 19-68zM447 379.4c-80.6 21-171.8-19.2-206.8-90.2-35.8-72.4-1.2-153 80.2-179.4 84.4-27.2 184 14.6 218.6 92.6 34.2 76.6-8.4 155.2-92 177z" />
<glyph unicode="&#xe90f;" glyph-name="facebook2, brand1, social1" data-tags="facebook, brand, social" d="M608 768h160v192h-160c-123.514 0-224-100.486-224-224v-96h-128v-192h128v-512h192v512h160l32 192h-192v96c0 17.346 14.654 32 32 32z" />
<glyph unicode="&#xe910;" glyph-name="plus2" data-tags="plus" d="M213.333 384h256v-256c0-23.552 19.115-42.667 42.667-42.667s42.667 19.115 42.667 42.667v256h256c23.552 0 42.667 19.115 42.667 42.667s-19.115 42.667-42.667 42.667h-256v256c0 23.552-19.115 42.667-42.667 42.667s-42.667-19.115-42.667-42.667v-256h-256c-23.552 0-42.667-19.115-42.667-42.667s19.115-42.667 42.667-42.667z" />
<glyph unicode="&#xe911;" glyph-name="clock" data-tags="clock" d="M441.458 771.699c-143.050 0-259.413-117.111-259.413-261.080s116.364-261.080 259.413-261.080c143.050 0 259.413 117.111 259.413 261.080s-116.364 261.080-259.413 261.080zM441.458 476.565c-5.211 0-10.095 1.283-14.505 3.405l-67.752-68.187c-2.199-2.214-5.087-3.326-7.974-3.326s-5.775 1.112-7.974 3.326c-4.41 4.438-4.41 11.612 0 16.051l67.752 68.187c-2.109 4.438-3.384 9.353-3.384 14.598 0 14.802 9.44 27.277 22.558 31.965v161.007c0 6.277 5.042 11.351 11.279 11.351s11.279-5.074 11.279-11.351v-161.007c13.117-4.688 22.558-17.163 22.558-31.965 0-18.809-15.147-34.054-33.837-34.054z" />
<glyph unicode="&#xe912;" glyph-name="facebook" data-tags="facebook" d="M546.952-64h-490.435c-31.223 0-56.517 25.31-56.517 56.52v910.963c0 31.218 25.298 56.517 56.517 56.517h910.97c31.211 0 56.513-25.298 56.513-56.517v-910.963c0-31.214-25.306-56.52-56.513-56.52h-260.942v396.549h133.103l19.93 154.542h-153.034v98.665c0 44.744 12.425 75.235 76.586 75.235l81.835 0.036v138.224c-14.153 1.883-62.731 6.091-119.248 6.091-117.989 0-198.767-72.020-198.767-204.28v-113.971h-133.445v-154.542h133.445v-396.549z" />
<glyph unicode="&#xe913;" glyph-name="filter" data-tags="filter" horiz-adv-x="1103" d="M1052.281 858.129c25.244 0 46.502-23.97 46.502-52.434v0c0-28.464-21.258-52.434-46.502-52.434h-86.361c-15.944 0-30.559-8.989-38.53-23.97-22.587-43.445-65.103-71.909-112.934-71.909s-89.019 28.464-112.934 71.909c-7.972 14.981-23.915 23.97-38.53 23.97h-604.53c-25.244 0-46.502 23.97-46.502 52.434v0c0 28.464 21.258 52.434 46.502 52.434h605.859c15.944 0 30.559 8.989 38.53 23.97 22.587 43.445 65.103 71.909 112.934 71.909s89.019-28.464 112.934-71.909c7.972-14.981 23.915-23.97 38.53-23.97h85.033zM815.784 252.894c-47.831 0-89.019-28.464-112.934-71.909-7.972-14.981-23.915-23.97-38.53-23.97h-605.859c-25.244 0-46.502-23.97-46.502-52.434v0c0-28.464 21.258-52.434 46.502-52.434h605.859c15.944 0 30.559-8.989 38.53-23.97 22.587-43.445 65.103-71.909 112.934-71.909s89.019 28.464 112.934 71.909c7.972 14.981 23.915 23.97 38.53 23.97h86.361c25.244 0 46.502 23.97 46.502 52.434v0c0 28.464-21.258 52.434-46.502 52.434h-86.361c-15.944 0-30.559 8.989-38.53 23.97-23.915 43.445-65.103 71.909-112.934 71.909zM308.244 603.451c-47.831 0-89.019-28.464-112.934-71.909-7.972-14.981-23.915-23.97-38.53-23.97h-98.319c-25.244 0-46.502-23.97-46.502-52.434v0c0-28.464 21.258-52.434 46.502-52.434h98.319c15.944 0 30.559-8.989 38.53-23.97 22.587-43.445 65.103-71.909 112.934-71.909s89.019 28.464 112.934 71.909c7.972 14.981 23.915 23.97 38.53 23.97h593.901c25.244 0 46.502 23.97 46.502 52.434v0c0 28.464-21.258 52.434-46.502 52.434h-593.901c-15.944 0-30.559 8.989-38.53 23.97-23.915 43.445-65.103 71.909-112.934 71.909z" />
<glyph unicode="&#xe914;" glyph-name="global-recog" data-tags="global-recog" horiz-adv-x="791" d="M315.51 208.815c-8.141 4.716-24.795 9.061-34.248 9.061h-60.701c-20.366 0-42.612 12.542-52.832 29.874l-30.338 51.527c-0.891 1.531-2.079 3.259-3.563 5.086l-99.032-280.35 145.133 35.109 91.93-115.424 85.348 241.612-2.524 1.383-39.172 22.122zM659.787 299.28l-30.338-51.527c-10.22-17.357-32.466-29.874-52.807-29.874h-60.726c-9.403 0-26.082-4.395-34.248-9.11l-41.696-23.504 85.298-241.612 91.93 115.498 145.158-35.133-99.007 280.35c-1.46-1.778-2.648-3.555-3.563-5.086zM534.306 605.174l-56.94-54.49 13.462-76.785c2.846-16.147-6.978-23.184-21.875-15.505l-70.352 36.195-70.426-36.195c-14.823-7.678-24.647-0.642-21.801 15.505l13.412 76.785-56.915 54.49c-12.026 11.456-8.265 22.739 8.364 25.159l78.691 11.135 35.164 69.995c7.424 14.715 19.549 14.715 26.973 0l35.213-69.995 78.741-11.135c16.53-2.42 20.316-13.703 8.29-25.159zM398.601 807.184c-127.91 0-231.941-101.919-231.941-227.366 0-125.324 104.031-227.317 231.941-227.317s231.917 101.993 231.917 227.317c0 125.448-104.006 227.366-231.917 227.366zM398.591 295.939c-159.709 0-289.648 127.398-289.648 283.93 0 156.458 129.94 283.905 289.648 283.905 159.733 0 289.648-127.448 289.648-283.905 0-156.532-129.915-283.93-289.648-283.93zM782.916 595.819l-30.388 51.577c-7.25 12.295-12.967 33.232-12.967 47.404v59.576c0 9.876-7.572 22.665-16.283 27.628l-52.609 29.825c-12.62 7.111-28.235 22.344-35.436 34.714l-30.338 51.502c-5.073 8.567-18.213 15.999-28.284 15.999h-60.676c-14.6 0-35.832 5.555-48.452 12.69l-52.609 29.85c-8.24 4.543-24.276 4.642-32.565 0l-52.585-29.85c-12.645-7.135-33.877-12.69-48.477-12.69h-60.751c-9.997 0-23.137-7.432-28.161-15.999l-30.338-51.502c-7.25-12.369-22.89-27.603-35.51-34.714l-52.585-29.825c-8.71-4.963-16.307-17.752-16.307-27.628v-59.576c0-14.172-5.667-35.059-12.917-47.404l-30.412-51.577c-5.073-8.666-5.073-23.258 0-31.948l30.363-51.478c7.3-12.444 12.967-33.282 12.967-47.552v-59.551c0-9.703 7.646-22.69 16.307-27.603l52.585-29.776c7.028-3.975 15.342-10.74 22.816-18.517 3.687-4.074 8.983-10.098 12.695-16.246l30.338-51.601c5.023-8.444 18.163-15.949 28.161-15.949h60.751c14.6 0 35.832-5.555 48.477-12.666l52.585-29.776c8.29-4.716 24.276-4.716 32.565 0l52.609 29.776c12.62 7.111 33.852 12.666 48.452 12.666h60.676c10.071 0 23.211 7.506 28.235 15.949l30.388 51.651c3.662 6.148 8.933 12.221 12.62 16.196 7.448 7.777 15.788 14.542 22.816 18.517l52.609 29.776c8.636 4.913 16.283 17.9 16.283 27.603v59.551c0 14.271 5.716 35.109 12.967 47.552l30.388 51.478c5.098 8.691 5.098 23.282 0 31.948z" />
<glyph unicode="&#xe915;" glyph-name="mail" data-tags="mail" d="M128 600.704l359.552-251.691c14.507-10.027 33.92-10.496 48.939 0l359.509 251.691v-430.037c0-11.605-4.693-22.229-12.587-30.080s-18.475-12.587-30.080-12.587h-682.667c-11.605 0-22.229 4.693-30.080 12.587s-12.587 18.475-12.587 30.080zM42.667 683.392c0-0.427 0-0.853 0-1.28v-511.445c0-35.328 14.507-67.371 37.547-90.453s55.125-37.547 90.453-37.547h682.667c35.328 0 67.371 14.507 90.453 37.547s37.547 55.125 37.547 90.453v511.488c0 0.427 0 0.853 0 1.28-0.213 35.029-14.635 66.773-37.547 89.685-23.083 23.040-55.125 37.547-90.453 37.547h-682.667c-35.328 0-67.371-14.507-90.453-37.547-22.912-22.912-37.333-54.656-37.547-89.728zM891.477 701.696l-379.477-265.6-379.477 265.6c2.048 4.096 4.779 7.808 8.021 11.051 7.893 7.893 18.517 12.587 30.123 12.587h682.667c11.605 0 22.229-4.693 30.080-12.587 3.243-3.243 5.973-6.997 8.021-11.051z" />
<glyph unicode="&#xe920;" glyph-name="instagram" data-tags="instagram" d="M556.286 959.973c99.382-0.138 118.625-0.856 166.811-3.054 54.496-2.486 91.716-11.142 124.283-23.799 33.669-13.082 62.222-30.589 90.687-59.053 28.464-28.466 45.971-57.019 59.055-90.687 12.656-32.567 21.312-69.786 23.797-124.283 2.492-54.61 3.081-72.046 3.081-211.098 0-139.050-0.589-156.486-3.081-211.096-2.486-54.496-11.142-91.716-23.797-124.283-13.085-33.669-30.591-62.222-59.055-90.687-28.466-28.464-57.019-45.971-90.687-59.055-32.567-12.656-69.786-21.312-124.283-23.797-54.61-2.492-72.046-3.081-211.096-3.081-139.052 0-156.488 0.589-211.098 3.081-54.496 2.486-91.716 11.142-124.283 23.797-33.669 13.085-62.222 30.591-90.687 59.055-28.464 28.466-45.971 57.019-59.053 90.687-12.658 32.567-21.314 69.786-23.799 124.283-2.199 48.186-2.916 67.429-3.054 166.811v88.571c0.138 99.383 0.856 118.627 3.054 166.812 2.486 54.496 11.142 91.716 23.799 124.283 13.082 33.669 30.589 62.222 59.053 90.687 28.466 28.464 57.019 45.971 90.687 59.053 32.567 12.658 69.786 21.314 124.283 23.799 48.186 2.199 67.429 2.916 166.812 3.054zM535.564 867.742h-47.127c-115.249-0.064-132.613-0.666-183.329-2.98-49.919-2.276-77.030-10.617-95.071-17.629-23.899-9.288-40.955-20.383-58.87-38.3-17.918-17.915-29.012-34.971-38.3-58.87-7.012-18.042-15.353-45.152-17.629-95.071-2.314-50.716-2.915-68.081-2.98-183.329v-47.127c0.064-115.247 0.666-132.611 2.98-183.328 2.276-49.919 10.617-77.030 17.629-95.071 9.288-23.899 20.385-40.955 38.3-58.87 17.915-17.918 34.971-29.012 58.87-38.3 18.042-7.012 45.152-15.353 95.071-17.629 50.711-2.314 68.071-2.915 183.328-2.98h47.13c115.255 0.064 132.617 0.666 183.326 2.98 49.919 2.276 77.030 10.617 95.071 17.629 23.899 9.288 40.955 20.383 58.87 38.3 17.918 17.915 29.012 34.971 38.3 58.87 7.012 18.042 15.353 45.152 17.629 95.071 2.314 50.716 2.915 68.081 2.98 183.328v47.127c-0.064 115.249-0.666 132.613-2.98 183.329-2.276 49.919-10.617 77.030-17.629 95.071-9.288 23.899-20.383 40.955-38.3 58.87-17.915 17.918-34.971 29.012-58.87 38.3-18.042 7.012-45.152 15.353-95.071 17.629-50.716 2.314-68.081 2.915-183.328 2.98zM512.001 710.919c145.206 0 262.918-117.712 262.918-262.92 0-145.206-117.712-262.918-262.918-262.918-145.208 0-262.92 117.712-262.92 262.918 0 145.208 117.712 262.92 262.92 262.92zM512.001 618.667c-94.258 0-170.668-76.41-170.668-170.668 0-94.256 76.41-170.666 170.668-170.666 94.256 0 170.666 76.41 170.666 170.666 0 94.258-76.41 170.668-170.666 170.668zM785.306 782.747c33.933 0 61.441-27.508 61.441-61.441s-27.508-61.439-61.441-61.439c-33.931 0-61.439 27.506-61.439 61.439s27.508 61.441 61.439 61.441z" />
<glyph unicode="&#xe923;" glyph-name="location" data-tags="location" horiz-adv-x="890" d="M375.399 775.885c-108.772 0-197.312-83.34-197.312-185.725 0-163.824 180.404-359.207 188.063-367.46 2.36-2.539 5.684-3.99 9.249-3.99 3.806 0.227 6.889 1.451 9.249 3.99 7.659 8.388 188.063 207.127 188.063 367.46 0 102.384-88.54 185.725-197.312 185.725zM386.361 652.069c42.363 0 76.733-32.351 76.733-72.226s-34.37-72.226-76.733-72.226c-42.363 0-76.733 32.351-76.733 72.226s34.37 72.226 76.733 72.226z" />
<glyph unicode="&#xe927;" glyph-name="plus" data-tags="plus" horiz-adv-x="1084" d="M180.079 937.817l851.856-851.856-127.778-127.778-851.856 851.856 127.778 127.778zM1031.935 810.039l-851.856-851.856-127.778 127.778 851.856 851.856 127.778-127.778z" />
<glyph unicode="&#xe928;" glyph-name="quote1" data-tags="quote1" horiz-adv-x="1331" d="M404.901 960c-23.321 0-45.151-10.829-59.099-29.371l-316.685-420.75c-18.893-25.185-29.117-55.725-29.117-87.116v-340.763c0-80.665 66.053-146.001 147.604-146.001h295.207c81.551 0 147.604 65.335 147.604 146.001v292.001c0 80.592-66.053 146.001-147.604 146.001h-222.126l243.459 323.511c36.163 48.107 1.496 116.487-59.243 116.487zM1141.477 960c-23.321 0-45.295-10.829-59.243-29.371l-315.099-418.754c-18.893-25.185-29.117-55.652-29.117-87.116v-340.763c0-80.665 66.053-146.001 147.604-146.001h295.207c81.551 0 147.604 65.335 147.604 146.001v292.001c0 80.665-66.053 146.001-147.604 146.001h-222.126l242.018 321.372c36.163 48.18 1.496 116.629-59.243 116.629z" />
<glyph unicode="&#xe929;" glyph-name="quote2" data-tags="quote2" horiz-adv-x="1331" d="M923.532-64c23.321 0 45.151 10.829 59.099 29.371l316.685 420.75c18.893 25.185 29.117 55.725 29.117 87.116v340.763c0 80.665-66.053 146.001-147.604 146.001h-295.207c-81.551 0-147.604-65.335-147.604-146.001v-292.001c0-80.592 66.053-146.001 147.604-146.001h222.126l-243.459-323.511c-36.163-48.107-1.496-116.487 59.243-116.487zM186.955-64c23.321 0 45.295 10.829 59.243 29.371l315.099 418.754c18.893 25.185 29.117 55.652 29.117 87.116v340.763c0 80.665-66.053 146.001-147.604 146.001h-295.207c-81.551 0-147.604-65.335-147.604-146.001v-292.001c0-80.665 66.053-146.001 147.604-146.001h222.126l-242.018-321.372c-36.163-48.18-1.496-116.629 59.243-116.629z" />
<glyph unicode="&#xe92b;" glyph-name="twitter" data-tags="twitter" horiz-adv-x="1229" d="M1228.8 838.777c-45.15-20.561-93.763-34.466-144.756-40.679 52.075 31.951 92.032 82.615 110.857 142.968-48.757-29.585-102.634-51.108-160.19-62.646-45.872 50.22-111.434 81.58-183.992 81.58-139.13 0-252.006-115.75-252.006-258.496 0-20.266 2.164-39.939 6.491-58.874-209.524 10.798-395.247 113.605-519.663 270.182-21.71-38.312-34.115-82.763-34.115-130.099 0-89.642 44.501-168.781 112.155-215.155-41.256 1.257-80.203 13.017-114.247 32.247v-3.18c0-125.291 86.911-229.799 202.312-253.467-21.133-6.065-43.419-9.097-66.427-9.097-16.228 0-32.096 1.553-47.458 4.586 32.096-102.659 125.138-177.434 235.489-179.431-86.262-69.376-195.027-110.721-313.096-110.721-20.339 0-40.462 1.183-60.153 3.55 111.578-73.222 244.144-116.046 386.448-116.046 463.766 0 717.287 393.846 717.287 735.475 0 11.242-0.216 22.484-0.649 33.505 49.262 36.463 92.032 81.95 125.715 133.797z" />
<glyph unicode="&#xe92c;" glyph-name="youtube" data-tags="youtube" horiz-adv-x="1463" d="M580.389 259.165l-0.046 409.063 395.246-205.237-395.2-203.826zM1448.229 739.112c0 0-14.309 100.321-58.149 144.498-55.634 58.009-117.989 58.282-146.56 61.648-204.709 14.741-511.771 14.741-511.771 14.741h-0.64c0 0-307.063 0-511.771-14.741-28.617-3.367-90.926-3.64-146.606-61.648-43.84-44.178-58.103-144.498-58.103-144.498s-14.629-117.837-14.629-235.629v-110.467c0-117.837 14.629-235.629 14.629-235.629s14.263-100.321 58.103-144.498c55.68-58.009 128.777-56.189 161.326-62.24 117.029-11.192 497.371-14.65 497.371-14.65s307.383 0.455 512.091 15.196c28.571 3.412 90.926 3.685 146.56 61.694 43.84 44.178 58.149 144.498 58.149 144.498s14.629 117.792 14.629 235.629v110.467c0 117.792-14.629 235.629-14.629 235.629v0z" />
<glyph unicode="&#xeac9;" glyph-name="linkedin" data-tags="linkedin, brand, social" d="M928 960h-832c-52.8 0-96-43.2-96-96v-832c0-52.8 43.2-96 96-96h832c52.8 0 96 43.2 96 96v832c0 52.8-43.2 96-96 96zM384 128h-128v448h128v-448zM320 640c-35.4 0-64 28.6-64 64s28.6 64 64 64c35.4 0 64-28.6 64-64s-28.6-64-64-64zM832 128h-128v256c0 35.4-28.6 64-64 64s-64-28.6-64-64v-256h-128v448h128v-79.4c26.4 36.2 66.8 79.4 112 79.4 79.6 0 144-71.6 144-160v-288z" />
<glyph unicode="" glyph-name="linkedin" data-tags="linkedin, brand, social" d="M928 960h-832c-52.8 0-96-43.2-96-96v-832c0-52.8 43.2-96 96-96h832c52.8 0 96 43.2 96 96v832c0 52.8-43.2 96-96 96zM384 128h-128v448h128v-448zM320 640c-35.4 0-64 28.6-64 64s28.6 64 64 64c35.4 0 64-28.6 64-64s-28.6-64-64-64zM832 128h-128v256c0 35.4-28.6 64-64 64s-64-28.6-64-64v-256h-128v448h128v-79.4c26.4 36.2 66.8 79.4 112 79.4 79.6 0 144-71.6 144-160v-288z" />
<glyph unicode="" glyph-name="linkedin" data-tags="linkedin, brand, social" d="M928 960h-832c-52.8 0-96-43.2-96-96v-832c0-52.8 43.2-96 96-96h832c52.8 0 96 43.2 96 96v832c0 52.8-43.2 96-96 96zM384 128h-128v448h128v-448zM320 640c-35.4 0-64 28.6-64 64s28.6 64 64 64c35.4 0 64-28.6 64-64s-28.6-64-64-64zM832 128h-128v256c0 35.4-28.6 64-64 64s-64-28.6-64-64v-256h-128v448h128v-79.4c26.4 36.2 66.8 79.4 112 79.4 79.6 0 144-71.6 144-160v-288z" />
<glyph unicode="linkedin" glyph-name="linkedin" data-tags="linkedin, brand, social" d="M928 960h-832c-52.8 0-96-43.2-96-96v-832c0-52.8 43.2-96 96-96h832c52.8 0 96 43.2 96 96v832c0 52.8-43.2 96-96 96zM384 128h-128v448h128v-448zM320 640c-35.4 0-64 28.6-64 64s28.6 64 64 64c35.4 0 64-28.6 64-64s-28.6-64-64-64zM832 128h-128v256c0 35.4-28.6 64-64 64s-64-28.6-64-64v-256h-128v448h128v-79.4c26.4 36.2 66.8 79.4 112 79.4 79.6 0 144-71.6 144-160v-288z" />
<glyph unicode="brand64" glyph-name="linkedin" data-tags="linkedin, brand, social" d="M928 960h-832c-52.8 0-96-43.2-96-96v-832c0-52.8 43.2-96 96-96h832c52.8 0 96 43.2 96 96v832c0 52.8-43.2 96-96 96zM384 128h-128v448h128v-448zM320 640c-35.4 0-64 28.6-64 64s28.6 64 64 64c35.4 0 64-28.6 64-64s-28.6-64-64-64zM832 128h-128v256c0 35.4-28.6 64-64 64s-64-28.6-64-64v-256h-128v448h128v-79.4c26.4 36.2 66.8 79.4 112 79.4 79.6 0 144-71.6 144-160v-288z" />
</font>
</defs>
</svg>
